<svg data-v-423bf9ae="" xmlns="http://www.w3.org/2000/svg" viewBox="0 0 168.4549824108093 60" class="font"><!----><!----><!----><g data-v-423bf9ae="" id="bf9d824e-e361-46c7-af87-ac6023277c5c" fill="white" transform="matrix(5.6872042027481005,0,0,5.6872042027481005,-6.7677717228036585,-18.36966920651402)"><path d="M8.36 11.73L3.39 11.73L3.39 3.92L1.19 3.92L1.19 13.58L8.36 13.58ZM10.53 3.23C9.83 3.23 9.37 3.67 9.37 4.34C9.37 5.03 9.83 5.46 10.53 5.46C11.23 5.46 11.70 5.03 11.70 4.34C11.70 3.67 11.23 3.23 10.53 3.23ZM11.63 13.58L11.63 6.12L9.44 6.12L9.44 13.58ZM14.39 3.23C13.69 3.23 13.23 3.67 13.23 4.34C13.23 5.03 13.69 5.46 14.39 5.46C15.09 5.46 15.57 5.03 15.57 4.34C15.57 3.67 15.09 3.23 14.39 3.23ZM15.50 13.58L15.50 6.12L13.30 6.12L13.30 13.58ZM20.02 5.92C18.14 5.92 16.91 6.82 16.91 8.27C16.91 9.55 17.82 10.18 19.22 10.53C20.54 10.84 21.01 11.13 21.01 11.66C21.01 12.14 20.59 12.36 20.06 12.36C19.45 12.36 18.94 11.98 18.79 11.28L16.62 11.28C16.81 12.96 18.14 13.78 20.05 13.78C21.80 13.78 23.21 13.05 23.21 11.49C23.21 10.09 22.29 9.49 20.85 9.13C19.52 8.79 19.11 8.51 19.11 8.01C19.11 7.62 19.40 7.32 19.88 7.32C20.43 7.32 20.75 7.67 20.87 8.29L23.04 8.29C22.86 6.93 21.83 5.92 20.02 5.92ZM28.67 13.58L30.81 13.58C30.70 12.75 30.67 12.25 30.67 11.69L30.67 9.42C30.67 8.99 30.66 8.57 30.63 8.22C30.52 6.89 29.72 5.92 27.51 5.92C25.69 5.92 24.25 6.89 24.21 8.60L26.31 8.60C26.36 7.85 26.74 7.43 27.43 7.43C28.08 7.43 28.42 7.80 28.46 8.25C28.49 8.50 28.49 8.69 28.49 8.89L28.49 9.02L28.01 9.02C25.38 9.02 23.94 9.97 23.94 11.59C23.94 13.01 25.07 13.78 26.33 13.78C27.02 13.78 27.65 13.62 28.18 13.29L28.52 12.49ZM27.20 12.26C26.60 12.26 26.19 11.97 26.19 11.41C26.19 10.54 27.13 10.21 28.49 10.32L28.49 10.86C28.49 11.79 27.86 12.26 27.20 12.26Z"></path></g><!----><!----></svg>